<svg xmlns="http://www.w3.org/2000/svg" viewBox="0 0 750 500"><g id="freepik--background-complete--inject-5"><ellipse cx="265.49" cy="459.85" rx="49.63" ry="6.24" style="fill:#f5f5f5"></ellipse><path d="M146.61,470.59c0,3.44-22.22,6.24-49.63,6.24s-49.63-2.8-49.63-6.24,22.22-6.24,49.63-6.24S146.61,467.14,146.61,470.59Z" style="fill:#f5f5f5"></path><ellipse cx="475.09" cy="443.49" rx="33.18" ry="6.24" style="fill:#f5f5f5"></ellipse><path d="M703.44,477.55c0,3.45-26.66,6.24-59.55,6.24s-59.56-2.79-59.56-6.24,26.67-6.24,59.56-6.24S703.44,474.1,703.44,477.55Z" style="fill:#f5f5f5"></path><path d="M318.66,55.4a30,30,0,0,1,7.24-3.15l1.49-7.16,12.09-.21,1.75,7.1a30.06,30.06,0,0,1,7.34,2.89l6.11-4,8.71,8.41-3.79,6.25a29.69,29.69,0,0,1,3.14,7.24l7.16,1.49.21,12.1L363,88.09a29.66,29.66,0,0,1-2.89,7.34l4,6.11-8.4,8.71-6.26-3.79a29.46,29.46,0,0,1-7.23,3.14l-1.49,7.16-12.1.22-1.74-7.11a29.36,29.36,0,0,1-7.34-2.89l-6.12,4-8.7-8.4,3.79-6.25a29.73,29.73,0,0,1-3.15-7.24l-7.16-1.49L298,75.51l7.1-1.74A29.75,29.75,0,0,1,308,66.43l-4-6.12,8.41-8.7,6.25,3.79Zm6.45,16.12a13,13,0,1,0,18.36-.33A13,13,0,0,0,325.11,71.52Z" style="fill:#f5f5f5"></path><path d="M584,77.14A29.73,29.73,0,0,1,591.2,74l1.49-7.16,12.1-.21,1.74,7.1a29.75,29.75,0,0,1,7.34,2.89l6.12-4,8.7,8.41-3.79,6.25a30,30,0,0,1,3.15,7.23L635.21,96l.21,12.1-7.11,1.75a29.63,29.63,0,0,1-2.88,7.34l4,6.11L621,132l-6.25-3.79a29.69,29.69,0,0,1-7.24,3.14l-1.49,7.16-12.1.21-1.74-7.1a30.06,30.06,0,0,1-7.34-2.89l-6.11,4-8.71-8.41,3.79-6.25a29.46,29.46,0,0,1-3.14-7.23l-7.16-1.49-.22-12.1,7.11-1.74a29,29,0,0,1,2.89-7.34l-4-6.12,8.4-8.7L584,77.14Zm6.45,16.11a13,13,0,1,0,18.36-.32A13,13,0,0,0,590.41,93.25Z" style="fill:#f5f5f5"></path><path d="M123.26,189.12a29.12,29.12,0,0,1,7.23-3.15l1.49-7.16,12.1-.21,1.74,7.1a29.75,29.75,0,0,1,7.34,2.89l6.12-4L168,193l-3.79,6.25a29.66,29.66,0,0,1,3.15,7.23L174.5,208l.21,12.1-7.1,1.74a30,30,0,0,1-2.89,7.35l4,6.11L160.32,244l-6.25-3.79a29.53,29.53,0,0,1-7.24,3.14l-1.49,7.16-12.09.21-1.75-7.1a30.06,30.06,0,0,1-7.34-2.89l-6.11,4-8.71-8.41,3.79-6.25a29.63,29.63,0,0,1-3.14-7.23l-7.16-1.49-.21-12.1,7.1-1.74a29.36,29.36,0,0,1,2.89-7.34l-4-6.12,8.4-8.71,6.26,3.8Zm6.45,16.11a13,13,0,1,0,18.35-.32A13,13,0,0,0,129.71,205.23Z" style="fill:#f5f5f5"></path><path d="M270.72,33.5a13.1,13.1,0,0,1,3.22-1.4l.67-3.19,5.39-.1.78,3.17a13.26,13.26,0,0,1,3.27,1.29l2.72-1.79,3.88,3.75L289,38a13.56,13.56,0,0,1,1.4,3.23l3.19.66.09,5.4-3.16.77a13.26,13.26,0,0,1-1.29,3.27L291,54.07,287.24,58l-2.79-1.69a12.74,12.74,0,0,1-3.22,1.4l-.67,3.2-5.39.09-.78-3.17a12.85,12.85,0,0,1-3.27-1.28l-2.73,1.78-3.88-3.74,1.69-2.79a13.56,13.56,0,0,1-1.4-3.23l-3.19-.66-.1-5.39,3.17-.78A13.26,13.26,0,0,1,266,38.42l-1.79-2.73,3.75-3.88,2.79,1.69Zm2.87,7.19a5.79,5.79,0,1,0,8.18-.15A5.78,5.78,0,0,0,273.59,40.69Z" style="fill:#f5f5f5"></path><path d="M34.38,328a13.49,13.49,0,0,1,3.22-1.4l.67-3.19,5.39-.1.78,3.17a13.26,13.26,0,0,1,3.27,1.29L50.44,326l3.88,3.75-1.69,2.78a13.56,13.56,0,0,1,1.4,3.23l3.19.66.1,5.4-3.17.77a13.32,13.32,0,0,1-1.29,3.28l1.79,2.72-3.75,3.88-2.79-1.69a13.14,13.14,0,0,1-3.22,1.41l-.67,3.19-5.39.09-.77-3.16A13.17,13.17,0,0,1,34.78,351l-2.72,1.78L28.18,349l1.69-2.79A13.14,13.14,0,0,1,28.46,343l-3.19-.67L25.18,337l3.16-.78a13.26,13.26,0,0,1,1.29-3.27l-1.79-2.73,3.75-3.88L34.38,328Zm2.87,7.19a5.79,5.79,0,1,0,8.19-.15A5.78,5.78,0,0,0,37.25,335.17Z" style="fill:#f5f5f5"></path><path d="M382.9,45.75a17.57,17.57,0,0,1,4.23-1.84l.88-4.19,7.07-.12,1,4.15a17.56,17.56,0,0,1,4.3,1.69L404,43.1,409.07,48l-2.22,3.65a17.57,17.57,0,0,1,1.84,4.23l4.19.88.12,7.07-4.15,1a17.56,17.56,0,0,1-1.69,4.3l2.34,3.57-4.91,5.1-3.66-2.22a17.4,17.4,0,0,1-4.23,1.84l-.88,4.19-7.07.12-1-4.15a17.56,17.56,0,0,1-4.3-1.69l-3.57,2.34-5.1-4.92L377,69.7a17.57,17.57,0,0,1-1.84-4.23L371,64.59l-.12-7.07,4.15-1a17.56,17.56,0,0,1,1.69-4.3l-2.34-3.57,4.92-5.1,3.65,2.22Zm3.78,9.43A7.59,7.59,0,1,0,397.41,55,7.6,7.6,0,0,0,386.68,55.18Z" style="fill:#f5f5f5"></path><path d="M638.94,44.23a17.4,17.4,0,0,1,4.23-1.84L644,38.2l7.08-.12,1,4.15a17.72,17.72,0,0,1,4.3,1.69L660,41.58l5.1,4.92-2.22,3.65a17.47,17.47,0,0,1,1.84,4.24l4.19.87.12,7.08-4.15,1a17.56,17.56,0,0,1-1.69,4.3l2.34,3.58-4.92,5.09L657,74.1a17.47,17.47,0,0,1-4.24,1.84l-.87,4.19-7.08.12-1-4.15a17.56,17.56,0,0,1-4.3-1.69l-3.58,2.34-5.09-4.91L633,68.18A17.4,17.4,0,0,1,631.18,64L627,63.07,626.87,56,631,55a17.56,17.56,0,0,1,1.69-4.3l-2.34-3.57,4.91-5.1,3.66,2.22Zm3.77,9.43a7.6,7.6,0,1,0,10.74-.19A7.61,7.61,0,0,0,642.71,53.66Z" style="fill:#f5f5f5"></path><path d="M130.65,98.35H98.53a4,4,0,0,1-4-4V49.87a4,4,0,0,1,4-4H118.9L134.67,62.1V94.33A4,4,0,0,1,130.65,98.35Z" style="fill:#ebebeb"></path><path d="M94.51,82.42h40.17a0,0,0,0,1,0,0V92.63A5.72,5.72,0,0,1,129,98.35H100.23a5.72,5.72,0,0,1-5.72-5.72V82.42A0,0,0,0,1,94.51,82.42Z" style="fill:#e0e0e0"></path><path d="M108.74,92.7l1-1.22a1.8,1.8,0,0,0,1.46.87c.73,0,1.12-.44,1.12-1.3V87.31h-2.77V85.85h4.57v5.09c0,2-1,2.9-2.83,2.9A3.18,3.18,0,0,1,108.74,92.7Z" style="fill:#fafafa"></path><path d="M115.22,93.15l.58-1.26a4.12,4.12,0,0,0,2.1.58c.81,0,1.12-.21,1.12-.55,0-1-3.65,0-3.65-2.39,0-1.15,1-2,2.79-2a5.1,5.1,0,0,1,2.33.52l-.59,1.25a3.42,3.42,0,0,0-1.74-.45c-.78,0-1.12.25-1.12.56,0,1,3.65,0,3.65,2.42,0,1.12-1,1.92-2.85,1.92A5.18,5.18,0,0,1,115.22,93.15Z" style="fill:#fafafa"></path><path d="M103,74.06l1.26-1.48a3.79,3.79,0,0,0,3.17,1.8c1.71,0,2.6-1,2.6-3.08V62.77h-5.49V60.88h7.64V71.19c0,3.39-1.65,5.06-4.75,5.06A5.31,5.31,0,0,1,103,74.06Z" style="fill:#fafafa"></path><path d="M114.88,74.86l.86-1.65a7.39,7.39,0,0,0,4,1.2c1.94,0,2.74-.59,2.74-1.57,0-2.58-7.27-.35-7.27-4.93,0-2.06,1.84-3.45,4.79-3.45a8.36,8.36,0,0,1,4.19,1l-.89,1.65a6,6,0,0,0-3.32-.91c-1.82,0-2.71.67-2.71,1.59,0,2.71,7.29.5,7.29,5,0,2.08-1.91,3.41-5,3.41A8.28,8.28,0,0,1,114.88,74.86Z" style="fill:#fafafa"></path><g style="opacity:0.30000000000000004"><path d="M118.9,45.85V58.36a3.74,3.74,0,0,0,3.74,3.74h12Z" style="fill:#fff"></path></g><path d="M119.07,59.46a4.15,4.15,0,0,0,3.29,4,2.88,2.88,0,0,0,.4.09c1.57.28,11.91,2.12,11.91,1.88V62.1h-12S119.64,62,119.07,59.46Z" style="fill:#e0e0e0"></path><path d="M647.46,320.82H615.34a4,4,0,0,1-4-4V272.34a4,4,0,0,1,4-4h20.37l15.77,16.25V316.8A4,4,0,0,1,647.46,320.82Z" style="fill:#ebebeb"></path><path d="M611.32,304.89h40.17a0,0,0,0,1,0,0V315.1a5.72,5.72,0,0,1-5.72,5.72H617a5.72,5.72,0,0,1-5.72-5.72V304.89A0,0,0,0,1,611.32,304.89Z" style="fill:#e0e0e0"></path><path d="M625.55,315.17l1-1.21a1.81,1.81,0,0,0,1.46.86c.73,0,1.11-.44,1.11-1.3v-3.74h-2.76v-1.46h4.57v5.1c0,1.94-1,2.89-2.83,2.89A3.16,3.16,0,0,1,625.55,315.17Z" style="fill:#fafafa"></path><path d="M632,315.62l.58-1.26a4.12,4.12,0,0,0,2.1.58c.81,0,1.11-.21,1.11-.55,0-1-3.65,0-3.65-2.39,0-1.14,1-1.95,2.8-1.95a5,5,0,0,1,2.33.53l-.59,1.24a3.53,3.53,0,0,0-1.74-.45c-.79,0-1.12.25-1.12.57,0,1,3.65,0,3.65,2.41,0,1.12-1,1.92-2.85,1.92A5.18,5.18,0,0,1,632,315.62Z" style="fill:#fafafa"></path><path d="M619.83,296.53l1.26-1.48a3.78,3.78,0,0,0,3.17,1.81c1.71,0,2.6-1.05,2.6-3.09v-8.53h-5.49v-1.89H629v10.31c0,3.39-1.65,5.06-4.75,5.06A5.28,5.28,0,0,1,619.83,296.53Z" style="fill:#fafafa"></path><path d="M631.69,297.33l.86-1.65a7.36,7.36,0,0,0,4,1.2c1.93,0,2.74-.59,2.74-1.57,0-2.58-7.28-.34-7.28-4.92,0-2.07,1.85-3.46,4.8-3.46A8.28,8.28,0,0,1,641,288l-.89,1.65a6,6,0,0,0-3.32-.92c-1.82,0-2.71.68-2.71,1.59,0,2.71,7.29.5,7.29,5,0,2.09-1.91,3.41-5,3.41A8.28,8.28,0,0,1,631.69,297.33Z" style="fill:#fafafa"></path><g style="opacity:0.30000000000000004"><path d="M635.71,268.32v12.51a3.73,3.73,0,0,0,3.74,3.74h12Z" style="fill:#fff"></path></g><path d="M635.88,281.93a4.15,4.15,0,0,0,3.29,4,2.88,2.88,0,0,0,.4.09c1.57.28,11.91,2.12,11.91,1.89v-3.37h-12S636.44,284.47,635.88,281.93Z" style="fill:#e0e0e0"></path></g><g id="freepik--character-1--inject-5"><path d="M60,396.77h-4a4.14,4.14,0,0,1-4.1-3.64c-.79-6.48-2.34-24.53-2.36-24.71l2.83-.24c0,.18,1.57,18.18,2.35,24.61a1.29,1.29,0,0,0,1.28,1.13h4Z" style="fill:#e0e0e0"></path><path d="M60,396.77s0-.06,0-.17,0-.32,0-.54c0-.51,0-1.22,0-2.14v-.06H60l-2.21,0H56.5a5,5,0,0,1-.68,0,1.16,1.16,0,0,1-.59-.33,1.11,1.11,0,0,1-.33-.62c0-.25,0-.52-.07-.79,0-.55-.11-1.12-.16-1.7-.11-1.17-.22-2.42-.34-3.73-.49-5.27-1.08-11.6-1.73-18.47V368l-.17,0-2.1.18-.74.06h-.17l0,.17c.93,9.6,1.78,18.24,2.39,24.52a4.26,4.26,0,0,0,2.32,3.45,4.13,4.13,0,0,0,1.71.44c.54,0,1,0,1.48,0l2,0,.52,0h0l-.53,0-2,0a6.28,6.28,0,0,1-3.07-.47,4.05,4.05,0,0,1-2.17-3.3c-.59-6.29-1.4-14.93-2.29-24.52l-.16.18.74-.06,2.1-.18-.19-.16c.67,6.87,1.28,13.2,1.8,18.47.13,1.31.25,2.56.37,3.73,0,.58.11,1.15.17,1.69,0,.28,0,.54.08.81a1.48,1.48,0,0,0,.39.73,1.47,1.47,0,0,0,.7.38,3.64,3.64,0,0,0,.73,0h1.32L60,394l-.06-.07c0,.9,0,1.6,0,2.1,0,.23,0,.41,0,.55S60,396.76,60,396.77Z" style="fill:#263238"></path><polygon points="122.92 397.59 132.54 468.73 128.77 468.73 114.5 400.24 122.92 397.59" style="fill:#455a64"></polygon><path d="M122.92,397.59l-.53.15-1.61.49-6.31,1.93-.07,0,0,.08c2.54,12.31,7.79,37.67,13.85,66.92l.33,1.59,0,.14h4.11l0-.21c-2.73-19.92-5.16-37.72-6.92-50.56-.88-6.38-1.6-11.53-2.09-15.1-.25-1.75-.44-3.12-.58-4.06-.06-.46-.11-.8-.15-1.05a2.83,2.83,0,0,0-.06-.35s0,.13,0,.38.08.61.14,1.07c.12,1,.3,2.34.53,4.12.47,3.59,1.15,8.75,2,15.16,1.71,12.81,4.08,30.57,6.74,50.44l.18-.21h-3.77l.18.14c-.1-.5-.22-1-.33-1.59-6.14-29.23-11.46-54.57-14-66.88l-.06.1,6.23-2,1.62-.53Z" style="fill:#263238"></path><path d="M123.34,400.24H59.89A4.28,4.28,0,0,1,55.61,396h0a4.28,4.28,0,0,1,4.28-4.28h63.45a4.28,4.28,0,0,1,4.28,4.28h0A4.28,4.28,0,0,1,123.34,400.24Z" style="fill:#455a64"></path><path d="M46.32,370.54l-8.66-67.92a4.28,4.28,0,0,1,3.7-4.79h0a4.28,4.28,0,0,1,4.79,3.71l8.66,67.92a4.28,4.28,0,0,1-3.71,4.79h0A4.28,4.28,0,0,1,46.32,370.54Z" style="fill:#455a64"></path><polygon points="60.63 397.59 51.02 468.73 54.78 468.73 69.05 400.24 60.63 397.59" style="fill:#455a64"></polygon><path d="M123.87,400.24c0-.09-14.52-.17-32.43-.17s-32.44.08-32.44.17,14.52.17,32.44.17S123.87,400.34,123.87,400.24Z" style="fill:#263238"></path><path d="M77.07,215.83a4.07,4.07,0,0,0-4.65-3.5,5.21,5.21,0,0,0-6.89-2.11c-1.12.62-2,1.65-3.05,2.31A36,36,0,0,1,59.11,214a3.71,3.71,0,0,0-2.31,2.66A3.25,3.25,0,0,0,59,219.75a9.63,9.63,0,0,0,4,.36,1.4,1.4,0,0,0-.42,1.82,2.84,2.84,0,0,0,1.56,1.26A6.23,6.23,0,0,0,70.54,222l2.54-2A4.06,4.06,0,0,0,77.07,215.83Z" style="fill:#263238"></path><path d="M70.71,224.33a1.33,1.33,0,0,1-1.79,0,1.81,1.81,0,0,1-.44-1.83A2.88,2.88,0,0,1,69.7,221a6.65,6.65,0,0,1,1.82-.77,12.82,12.82,0,0,1,3-.57,2.43,2.43,0,0,1,1.07.13,1,1,0,0,1,.65.8c0,.51-.4.91-.81,1.21a31.32,31.32,0,0,1-4.86,3" style="fill:#00FFFF"></path><path d="M69.22,224.07c-2.41-2.69-8.42-2.33-9.85-.58a4.57,4.57,0,0,0-6,1.95L47,226.79A6.63,6.63,0,0,0,43.89,228a2.3,2.3,0,0,0-.56,3,3.47,3.47,0,0,0-1.5,5.54,2.41,2.41,0,0,0,.33,3.5A24.4,24.4,0,0,0,38,247.11a4.89,4.89,0,0,0-.34,3.37c.39,1.08,1.8,1.83,2.74,1.17a2.81,2.81,0,0,0-.15,3c-1.08,0-1.42,1.69-.68,2.48a3.93,3.93,0,0,0,3,.86,5.31,5.31,0,0,1,3.14.56,1,1,0,0,1-.36.69,4.43,4.43,0,0,0-1,6l.35.5a9.59,9.59,0,0,0,3.12,2.22c2.43,1.3,3.89,1.07,6.61,1.48-.75,1.75,3.65,5.68,8.74,1.89a98,98,0,0,0,27.85,4c1.5,0,3.29-.18,4-1.51a3.7,3.7,0,0,0,3.43-1.1,10.76,10.76,0,0,0,2-3.14,6.52,6.52,0,0,0,4.73-5.83,8,8,0,0,0,3.07-5.7,4.73,4.73,0,0,0,2.76-6.36,28.58,28.58,0,0,0-3-8.83c1.72-.36,2.38-2.67,1.68-4.28s-2.24-2.65-3.71-3.6c1.28.35,2.4-1.25,2.11-2.54a5.08,5.08,0,0,0-2.58-2.88,24.52,24.52,0,0,0-5.29-2.41c-.6-2.26-3.46-4.84-5.57-5.86-8.48-4.09-14.44-5.15-25.35,2.72" style="fill:#263238"></path><path d="M62.26,237.73c-.12-1.79-.41-3.56,1.36-3.83l18.1-5.45c5.83-.89,10.06,6.15,10.69,12,.71,6.52,1.32,14.5.77,19.42a15,15,0,0,1-9.82,12.53l.08,8.6c-.75,4.61-1.77,7.19-3.65,9-6.4-1.19-16.88-15.27-16.88-15.27Z" style="fill:#ffbf9d"></path><path d="M83.34,255.38a9.14,9.14,0,0,1,2.19-.5c.34,0,.66-.13.71-.37a1.72,1.72,0,0,0-.28-1c-.36-.83-.74-1.69-1.14-2.59a44.45,44.45,0,0,1-2.6-6.78,47.26,47.26,0,0,1,3.14,6.55c.39.91.75,1.78,1.1,2.61a2,2,0,0,1,.24,1.35.86.86,0,0,1-.54.53,2.41,2.41,0,0,1-.59.11A8.84,8.84,0,0,1,83.34,255.38Z" style="fill:#263238"></path><path d="M83.36,272.42a32.22,32.22,0,0,1-12-4s2.15,6.27,12,7Z" style="fill:#ff9a6c"></path><path d="M77.56,240.3c-.11.37-1.47.26-3,.52s-2.84.75-3.07.43c-.1-.15.11-.51.61-.89a5.41,5.41,0,0,1,4.66-.73C77.31,239.84,77.61,240.12,77.56,240.3Z" style="fill:#263238"></path><path d="M90.58,240.07c-.22.32-1.17,0-2.29.08s-2.06.3-2.29,0c-.11-.15,0-.47.43-.78a3.31,3.31,0,0,1,3.7-.05C90.54,239.61,90.68,239.92,90.58,240.07Z" style="fill:#263238"></path><path d="M97.23,245.18A6.71,6.71,0,0,0,95.6,241a25.27,25.27,0,0,1-1.82-1.76c-1.1-1.45-1-3.46-1.42-5.22a7.4,7.4,0,0,0-4.59-5c-1.84-.66-3.93-.57-5.66-1.49-1.27-.67-2.25-1.85-3.56-2.45-2.56-1.17-5.53.15-8,1.59-.47,1.92.74,3.58,1.91,5.18a6.87,6.87,0,0,0,5,2.74c1.53.09,3.32-.25,4.4.84s.7,3.18,1.63,4.49c1.33,1.89,4.36,1.17,6.36,2.33,1.53.9,2.18,2.74,3,4.35s2.11,3.28,3.89,3.19A20.29,20.29,0,0,0,97.23,245.18Z" style="fill:#263238"></path><path d="M74.43,230.14a34.92,34.92,0,0,0-13.14,2.38,6.33,6.33,0,0,0-3.23,2.24,6.17,6.17,0,0,0-.69,3.4c.05,3.68,1.53,8.17,2.94,11.57l4.59,2.74c3.53-.83,1.9-6.94,1.73-10a7.2,7.2,0,0,0,4.21-6.38A8,8,0,0,0,74.43,230.14Z" style="fill:#263238"></path><path d="M64.83,251.15c-.14-2.1-2.72-2.5-4.52-1.42-1,.6-1.74,1.77-1.61,4,.34,6,6.25,4.38,6.25,4.21S65,253.61,64.83,251.15Z" style="fill:#ffbf9d"></path><path d="M63,255.79s-.1.08-.27.17A1,1,0,0,1,62,256a2.6,2.6,0,0,1-1.32-2.23,3.46,3.46,0,0,1,.21-1.5,1.21,1.21,0,0,1,.73-.85.54.54,0,0,1,.63.25c.09.17.06.29.09.29s.12-.1.06-.35a.63.63,0,0,0-.26-.35.75.75,0,0,0-.58-.12,1.48,1.48,0,0,0-1,1,3.55,3.55,0,0,0-.26,1.68,2.7,2.7,0,0,0,1.66,2.48,1.09,1.09,0,0,0,.94-.21C63,255.93,63,255.8,63,255.79Z" style="fill:#ff9a6c"></path><path d="M62.34,258.29a.24.24,0,0,1,0,.08.79.79,0,0,1-.08.23,1.33,1.33,0,0,1-.69.61,3.38,3.38,0,0,1-1.47.31,5.22,5.22,0,0,1-.95-.06,3.58,3.58,0,0,1-1.05-.31l.08,0A3,3,0,0,1,53.44,261l.11,0a1.27,1.27,0,0,1-.78.52,1.79,1.79,0,0,1-1-.08,1.58,1.58,0,0,1-.77-.63,2,2,0,0,1-.31-1,3,3,0,0,1,.65-2,8.76,8.76,0,0,1,1.57-1.53v.13A2.11,2.11,0,0,1,52,255a3,3,0,0,1,.17-1.75,4.77,4.77,0,0,1,1-1.49,14.77,14.77,0,0,1,1.41-1.19v.13A2.22,2.22,0,0,1,54,249a3.22,3.22,0,0,1,.67-1.77,8.13,8.13,0,0,1,2.9-2l-.05.11a4,4,0,0,1,4.29-4.89l-.09.11a3.55,3.55,0,0,1,3.32-4.14l-.08.08a3.36,3.36,0,0,1,1.35-2.6,3.29,3.29,0,0,1,2.49-.69l-.07.06a3.33,3.33,0,0,1,.48-1.53,4.44,4.44,0,0,1,.9-1.09,3.46,3.46,0,0,1,2-.88h.43c.13,0,.26,0,.38,0a3.55,3.55,0,0,1,.56.16l.34.14.11,0-.12,0-.34-.12a3.66,3.66,0,0,0-.56-.15c-.12,0-.24,0-.37,0h-.21l-.22,0a3.37,3.37,0,0,0-2,.88,4.12,4.12,0,0,0-.87,1.08,3.14,3.14,0,0,0-.45,1.47v.07H68.8a3.15,3.15,0,0,0-2.39.68,3.2,3.2,0,0,0-1.28,2.49v.07h-.07a3.23,3.23,0,0,0-2.4,1.19,3.3,3.3,0,0,0-.76,2.76l0,.11h-.12a3.78,3.78,0,0,0-4.09,4.67l0,.07-.07,0a7.92,7.92,0,0,0-2.84,2A3.12,3.12,0,0,0,54.2,249a2.06,2.06,0,0,0,.54,1.59l.07.07-.08.06a7,7,0,0,0-2.4,2.61,2.92,2.92,0,0,0-.16,1.65,2,2,0,0,0,.86,1.3l.11.06-.1.08a8.72,8.72,0,0,0-1.54,1.49,2.88,2.88,0,0,0-.62,1.88,1.59,1.59,0,0,0,1,1.48,1.31,1.31,0,0,0,1.58-.38l0-.06.06,0a2.89,2.89,0,0,0,3,.29,2.93,2.93,0,0,0,1.53-2.07V259l.06,0a3.26,3.26,0,0,0,1,.31,5.26,5.26,0,0,0,.94.08,3.66,3.66,0,0,0,1.45-.28,1.39,1.39,0,0,0,.69-.59C62.31,258.4,62.33,258.29,62.34,258.29Z" style="fill:#455a64"></path><path d="M39.67,251.93a1.85,1.85,0,0,1-.23-.36,3,3,0,0,1-.31-1.18,2.94,2.94,0,0,1,.48-1.86,3.19,3.19,0,0,1,2.16-1.38l-.05.07a4.11,4.11,0,0,1,.53-2.93,4,4,0,0,1,1.17-1.24,9,9,0,0,1,1.63-.77,3.63,3.63,0,0,0,.78-.46,2.17,2.17,0,0,0,.54-.73c.26-.57.35-1.25.68-1.86a3.61,3.61,0,0,1,3.62-1.8l-.1.1a4.77,4.77,0,0,1,5.28-5.41l-.1.1A4.28,4.28,0,0,1,58,228.06a4.32,4.32,0,0,1,4.29.24h-.1A5.84,5.84,0,0,1,64.24,227a8.66,8.66,0,0,1,2.14-.49,10.24,10.24,0,0,1,3.53.24,7.09,7.09,0,0,1,2.09.87,4.06,4.06,0,0,1,.49.35l.15.13s-.22-.17-.66-.44a7.21,7.21,0,0,0-2.09-.82,10,10,0,0,0-3.5-.2,8.38,8.38,0,0,0-2.1.49,5.67,5.67,0,0,0-2,1.25l0,.05,0,0a4,4,0,0,0-6.25,3.77v.11h-.11a4.59,4.59,0,0,0-5.08,5.2l0,.12-.12,0a3.46,3.46,0,0,0-3.45,1.71c-.32.57-.4,1.24-.68,1.84a2.22,2.22,0,0,1-.59.79,3.63,3.63,0,0,1-.82.49,10,10,0,0,0-1.61.74,4,4,0,0,0-1.13,1.19,4,4,0,0,0-.54,2.84l0,.06h-.07a3,3,0,0,0-2.59,3.12,3.32,3.32,0,0,0,.28,1.17C39.59,251.81,39.67,251.92,39.67,251.93Z" style="fill:#455a64"></path><path d="M96.58,253.54a.63.63,0,0,1,0-.49,1,1,0,0,1,.35-.49,1.86,1.86,0,0,1,.73-.37,3.49,3.49,0,0,0,.93-.39,1.84,1.84,0,0,0,.67-1,3.54,3.54,0,0,0,.15-1.36c0-.49-.1-1-.1-1.57a16.16,16.16,0,0,1,.76-3.52,4.91,4.91,0,0,0,.08-1.95,2.42,2.42,0,0,0-1.08-1.68,9,9,0,0,0-2.09-.7,3.72,3.72,0,0,1-1.07-.5,2.47,2.47,0,0,1-.75-.94,11.22,11.22,0,0,1-.62-2.34,3.93,3.93,0,0,0-.42-1.13,1.81,1.81,0,0,0-.87-.77,6.91,6.91,0,0,0-1.65-.22,2.67,2.67,0,0,1-.83-.21,1.64,1.64,0,0,1-.66-.56,6,6,0,0,1-.63-1.52,3.66,3.66,0,0,0-.74-1.34,3.6,3.6,0,0,0-2.59-1.24,3.72,3.72,0,0,0-2.53.91l-.08.08,0-.1a5.66,5.66,0,0,0-3.54-3.05,5.1,5.1,0,0,0-2-.17,4.71,4.71,0,0,0-1.63.45,4.16,4.16,0,0,0-1.74,1.6,3,3,0,0,0-.29.56l-.08.15,0,.05s0,0,0-.06l.06-.15a4.06,4.06,0,0,1,.28-.57,4.1,4.1,0,0,1,1.74-1.66,4.82,4.82,0,0,1,1.66-.48,5.35,5.35,0,0,1,2,.16,5.78,5.78,0,0,1,3.64,3.1l-.12,0a3.75,3.75,0,0,1,5.35.32,3.94,3.94,0,0,1,.78,1.4,6,6,0,0,0,.6,1.48,1.79,1.79,0,0,0,1.37.69,6.67,6.67,0,0,1,1.69.23,2,2,0,0,1,1,.85,4,4,0,0,1,.43,1.18,11.94,11.94,0,0,0,.61,2.3,2.25,2.25,0,0,0,.7.88,3.33,3.33,0,0,0,1,.47,9,9,0,0,1,2.12.73,2.33,2.33,0,0,1,.78.78,2.94,2.94,0,0,1,.37,1,5.06,5.06,0,0,1-.09,2,15.93,15.93,0,0,0-.77,3.48c0,.55.07,1.07.08,1.57a3.53,3.53,0,0,1-.17,1.39,1.92,1.92,0,0,1-.71,1,3.54,3.54,0,0,1-1,.38,1.94,1.94,0,0,0-.72.35,1.11,1.11,0,0,0-.35.46A.73.73,0,0,0,96.58,253.54Z" style="fill:#455a64"></path><path d="M108.13,244.32l-.06-.11c0-.09-.1-.2-.17-.34-.14-.3-.35-.73-.61-1.29s-.57-1.25-1-2a5.25,5.25,0,0,0-2-2.13c-.48-.26-1-.44-1.59-.69a3.49,3.49,0,0,1-.81-.47,2,2,0,0,1-.61-.78c-.28-.61-.29-1.31-.52-2a1.64,1.64,0,0,0-.57-.82,3.25,3.25,0,0,0-1-.44,5.64,5.64,0,0,1-1-.4,1.93,1.93,0,0,1-.81-.84,8.39,8.39,0,0,1-.51-2.31,2.92,2.92,0,0,0-.4-1.09,1.51,1.51,0,0,0-.94-.63c-.78-.16-1.63.11-2.5,0a2.09,2.09,0,0,1-1.14-.61,5.09,5.09,0,0,1-.74-1c-.22-.36-.42-.71-.66-1a2.24,2.24,0,0,0-.87-.75,3.54,3.54,0,0,0-2.25,0,5.27,5.27,0,0,1-2.26.2,6,6,0,0,1-2-.9,10.5,10.5,0,0,0-1.75-1,6.19,6.19,0,0,0-3.53-.11,6.52,6.52,0,0,0-2.61,1.35,7.34,7.34,0,0,0-1.45,1.7,9.92,9.92,0,0,0-.62,1.28c0,.15-.1.26-.13.35s-.05.12-.06.12a.63.63,0,0,1,0-.13l.12-.35a8,8,0,0,1,.59-1.3,7.17,7.17,0,0,1,1.44-1.75,6.68,6.68,0,0,1,2.65-1.4,6.29,6.29,0,0,1,3.61.1,10.44,10.44,0,0,1,1.79,1,5.92,5.92,0,0,0,1.91.87,5.17,5.17,0,0,0,2.19-.21,8.78,8.78,0,0,1,1.16-.2,2.49,2.49,0,0,1,1.2.19,2.46,2.46,0,0,1,.95.8,11.38,11.38,0,0,1,.66,1,4.74,4.74,0,0,0,.72,1,1.9,1.9,0,0,0,1,.56c.81.13,1.66-.14,2.51,0a1.66,1.66,0,0,1,1,.69A3,3,0,0,1,97,229.7a9,9,0,0,0,.49,2.26,1.78,1.78,0,0,0,.74.77,6.3,6.3,0,0,0,1,.39,3.45,3.45,0,0,1,1,.47,1.9,1.9,0,0,1,.62.89c.23.68.24,1.37.5,2a2.46,2.46,0,0,0,1.35,1.19c.54.24,1.1.42,1.6.69a5.51,5.51,0,0,1,2,2.2c.42.78.72,1.48,1,2l.59,1.31.15.34A1.26,1.26,0,0,1,108.13,244.32Z" style="fill:#455a64"></path><path d="M101.8,238.09l.1,0a.74.74,0,0,1,.32.07,1.28,1.28,0,0,1,.59,1.06,3.27,3.27,0,0,1-.12.89,3.7,3.7,0,0,0-.16,1,2.35,2.35,0,0,0,.42,1.1c.23.36.53.71.76,1.13a1.68,1.68,0,0,1,.15,1.5c-.19.51-.55.93-.73,1.45a2.21,2.21,0,0,0,.16,1.64c.23.54.56,1.07.79,1.67a2.84,2.84,0,0,1,.19,1,2.27,2.27,0,0,1-.23,1,11.15,11.15,0,0,1-1.13,1.7,2.72,2.72,0,0,0-.62,1.88,8.52,8.52,0,0,0,.72,2,3.42,3.42,0,0,1,.22,1.1,2.66,2.66,0,0,1-.28,1.07,9.42,9.42,0,0,1-1.28,1.68,4.8,4.8,0,0,0-1,1.68,16.9,16.9,0,0,1-.62,1.86,2.22,2.22,0,0,1-.61.75,2.73,2.73,0,0,1-.84.41,6.59,6.59,0,0,0-.82.29,2.8,2.8,0,0,0-.69.47,6.12,6.12,0,0,0-1,1.27c-.28.45-.53.88-.82,1.27a4.1,4.1,0,0,1-2.07,1.53,4.24,4.24,0,0,1-1.94.18,3.92,3.92,0,0,1-1.19-.34,2.93,2.93,0,0,1-.37-.22,4.34,4.34,0,0,0,3.47.28,4,4,0,0,0,2-1.5c.28-.39.52-.82.8-1.27a6,6,0,0,1,1-1.31,2.81,2.81,0,0,1,.72-.5,6.47,6.47,0,0,1,.84-.3,2.77,2.77,0,0,0,.79-.39,1.93,1.93,0,0,0,.56-.7,13.53,13.53,0,0,0,.6-1.83,5,5,0,0,1,1.07-1.75,9.06,9.06,0,0,0,1.26-1.64,2.47,2.47,0,0,0,.26-1,3,3,0,0,0-.21-1,8.71,8.71,0,0,1-.73-2.06,2.22,2.22,0,0,1,.14-1.08,4.37,4.37,0,0,1,.52-.92,11.33,11.33,0,0,0,1.12-1.67,2.24,2.24,0,0,0,.21-.91,2.59,2.59,0,0,0-.18-.91c-.21-.58-.54-1.11-.78-1.67a2.43,2.43,0,0,1-.16-1.75c.2-.55.57-1,.75-1.45a1.58,1.58,0,0,0-.13-1.39c-.22-.41-.51-.76-.75-1.13a2.48,2.48,0,0,1-.42-1.16,3.72,3.72,0,0,1,.17-1.05,3.27,3.27,0,0,0,.14-.87,1.22,1.22,0,0,0-.54-1A.84.84,0,0,0,101.8,238.09Z" style="fill:#455a64"></path><path d="M58.82,257.32a2.94,2.94,0,0,0-.89.51,4,4,0,0,0-1.44,2.38,4.31,4.31,0,0,0,0,2,4.73,4.73,0,0,0,1.09,2,4.93,4.93,0,0,0,2.07,1.36,4.54,4.54,0,0,0,2.66.06,4.81,4.81,0,0,0,2.26-1.39,4.3,4.3,0,0,0,1.09-2.22A4.67,4.67,0,0,0,64.53,258a4.15,4.15,0,0,0-1.36-.87,4.54,4.54,0,0,0-1.17-.31,2.53,2.53,0,0,0-.77,0,1,1,0,0,0-.25.08,3.61,3.61,0,0,1,1,0,4.4,4.4,0,0,1,1.13.34,4,4,0,0,1,1.29.87,4.47,4.47,0,0,1,1.08,3.76,4.2,4.2,0,0,1-1,2.11,4.61,4.61,0,0,1-2.17,1.32,4.32,4.32,0,0,1-2.52-.05,4.74,4.74,0,0,1-2-1.29,4.59,4.59,0,0,1-1.06-1.87,4.13,4.13,0,0,1-.08-1.87A4.07,4.07,0,0,1,58,257.9,7.37,7.37,0,0,1,58.82,257.32Z" style="fill:#e0e0e0"></path><path d="M78.55,249.24a1.27,1.27,0,0,1-1.18,1.35,1.24,1.24,0,0,1-1.39-1.1,1.3,1.3,0,0,1,1.19-1.36A1.23,1.23,0,0,1,78.55,249.24Z" style="fill:#263238"></path><path d="M90.69,248.66A1.29,1.29,0,0,1,89.5,250a1.23,1.23,0,0,1-1.38-1.11,1.29,1.29,0,0,1,1.19-1.35A1.23,1.23,0,0,1,90.69,248.66Z" style="fill:#263238"></path><path d="M90.45,244.57c-.13.2-1.11-.47-2.38-.33s-2.11,1-2.27.81,0-.41.4-.8a2.87,2.87,0,0,1,3.7-.38C90.34,244.18,90.51,244.49,90.45,244.57Z" style="fill:#263238"></path><path d="M78.33,245.62c-.18.2-1.26-.65-2.79-.63s-2.63.83-2.8.63.09-.44.57-.83a3.71,3.71,0,0,1,2.24-.75,3.57,3.57,0,0,1,2.22.75C78.25,245.17,78.41,245.53,78.33,245.62Z" style="fill:#263238"></path><path d="M107.51,219.75a7.84,7.84,0,0,0-1.63-.94,5.86,5.86,0,0,0-2.14-.38,5.31,5.31,0,0,0-2.72.79l-.13.08-.08-.13a4.86,4.86,0,0,0-3-2.19,5,5,0,0,0-4.18.66l-.16.11-.11-.15a8,8,0,0,0-5.09-3.09,7.78,7.78,0,0,0-4.64.7,8.1,8.1,0,0,0-3.22,2.86l-.05.08h-.1a12,12,0,0,0-4.8,1.19,12.82,12.82,0,0,0-3.2,2.18,18.36,18.36,0,0,0-2.19,2.64l.1-.21c.07-.13.17-.34.33-.59a11.8,11.8,0,0,1,1.61-2,12.14,12.14,0,0,1,3.22-2.3,11.93,11.93,0,0,1,4.92-1.28l-.15.08a8.31,8.31,0,0,1,3.36-3,8,8,0,0,1,4.87-.74,8.37,8.37,0,0,1,5.34,3.25l-.27,0a5.31,5.31,0,0,1,4.5-.69,5.2,5.2,0,0,1,3.15,2.38l-.21-.05a5.5,5.5,0,0,1,2.88-.77,5.67,5.67,0,0,1,2.21.46,5.28,5.28,0,0,1,1.21.74A2.88,2.88,0,0,1,107.51,219.75Z" style="fill:#263238"></path><path d="M67.18,217.68a3.58,3.58,0,0,1-1.49.36,5.35,5.35,0,0,1-3.91-1.41,4.84,4.84,0,0,1-1.45-2.57,5.51,5.51,0,0,1,.33-3.39,5,5,0,0,1,2.73-2.62,5.41,5.41,0,0,1,4.09,0l-.23,0a3.83,3.83,0,0,1,2.24-1.27,3.91,3.91,0,0,1,2.17.18,3.57,3.57,0,0,1,1.65,1.34,4,4,0,0,1,.34,3.86l-.27-.24a3.28,3.28,0,0,1,3.07-.06A3.39,3.39,0,0,1,78.26,214a4.31,4.31,0,0,1-1.19,4.28,5.39,5.39,0,0,1-2.62,1.36,5.24,5.24,0,0,1-.79.1c-.18,0-.27,0-.27,0s.37,0,1-.21a5.54,5.54,0,0,0,2.49-1.41,4.06,4.06,0,0,0,1-4,3,3,0,0,0-1.65-1.9,2.91,2.91,0,0,0-2.72.06l-.54.34.27-.58a3.58,3.58,0,0,0-.33-3.48,3.16,3.16,0,0,0-1.46-1.19,3.68,3.68,0,0,0-2-.16,3.44,3.44,0,0,0-2,1.14l-.09.11-.14-.05a5,5,0,0,0-3.79,0,4.72,4.72,0,0,0-2.56,2.4,5.31,5.31,0,0,0-.34,3.19A4.75,4.75,0,0,0,62,216.44a5.3,5.3,0,0,0,3.73,1.45A9,9,0,0,0,67.18,217.68Z" style="fill:#263238"></path><path d="M38.89,233.15a.82.82,0,0,1-.12-.23,4.19,4.19,0,0,1-.23-.69,6.32,6.32,0,0,1-.06-2.74,6.18,6.18,0,0,1,2.08-3.59,6.62,6.62,0,0,1,5-1.53l-.2.11a7.79,7.79,0,0,1,4-3.78,7.59,7.59,0,0,1,4.18-.49,7.81,7.81,0,0,1,3.53,1.53h-.2a8.56,8.56,0,0,1,4.24-1,9.06,9.06,0,0,1,3.31.67,8,8,0,0,1,1.9,1.1,3.42,3.42,0,0,1,.57.53,11.43,11.43,0,0,0-2.55-1.43,9.08,9.08,0,0,0-3.24-.57,8.37,8.37,0,0,0-4,1l-.11,0-.09-.07a7.54,7.54,0,0,0-3.37-1.43,7.26,7.26,0,0,0-4,.47,7.59,7.59,0,0,0-3.82,3.57l-.06.13-.13,0a6.32,6.32,0,0,0-4.76,1.4,6.13,6.13,0,0,0-2.06,3.39,6.62,6.62,0,0,0,0,2.66C38.79,232.82,38.91,233.14,38.89,233.15Z" style="fill:#263238"></path><path d="M144.84,343.46l-3.35-5.06-5.38-2.7-.2-.15a7.22,7.22,0,0,0-6.11-1.13c-2.19.58-5.11,1.31-7.65,1.74l-5.78-1.59v11.3l29.2-1.84Z" style="fill:#ffbf9d"></path><path d="M144.63,343.15A7.77,7.77,0,0,0,143.4,342c-.79-.66-1.9-1.55-3.13-2.52l-1.16-.9,0,0h0c-1.19-.22-2.23-.4-3-.52a4.94,4.94,0,0,0-1.19-.12,4.43,4.43,0,0,0,1.15.34c.73.18,1.76.4,3,.65l-.08,0,1.15.91c1.24,1,2.37,1.83,3.2,2.44A7.28,7.28,0,0,0,144.63,343.15Z" style="fill:#ff9a6c"></path><path d="M142.36,344.14a32.68,32.68,0,0,0-4.2-2.53l-1-.57,0,0h0a21.72,21.72,0,0,0-3.74-.06,23.18,23.18,0,0,0,3.72.41l-.08,0,1,.57A32,32,0,0,0,142.36,344.14Z" style="fill:#ff9a6c"></path><path d="M178.83,311.5a2.22,2.22,0,0,0-2.88.62L152.43,344l-37.21.5c-1.49.09-3.29,3.09-2,4.55l42-.58,24.26-33.7A2.23,2.23,0,0,0,178.83,311.5Z" style="fill:#455a64"></path><path d="M178.83,311.5l.18.1a2,2,0,0,1,.47.42,2.26,2.26,0,0,1,.35,2.33,13.39,13.39,0,0,1-1,1.49l-1.24,1.74c-.89,1.26-1.92,2.7-3.07,4.31l-19.1,26.66,0,.07h-.09l-41.26.59h-.85l-.06-.07a2.1,2.1,0,0,1-.51-1.5,3.63,3.63,0,0,1,.4-1.49,4.28,4.28,0,0,1,.9-1.23,2.13,2.13,0,0,1,1.41-.66l5.75-.07,11.1-.15,20.27-.25-.14.07c7.65-10.32,14-18.91,18.5-24.93l5.21-7a2.26,2.26,0,0,1,2.09-.76,1.85,1.85,0,0,1,.74.29,3.09,3.09,0,0,0-.75-.23,2.17,2.17,0,0,0-2,.77l-5.13,7-18.38,25,0,.07h-.09l-20.26.29-11.1.16-5.75.08a1.69,1.69,0,0,0-1.15.55,4,4,0,0,0-.82,1.12,2.31,2.31,0,0,0,.05,2.55l-.14-.07H114l41.26-.54-.14.07,19.21-26.57c1.16-1.6,2.21-3,3.11-4.28l1.26-1.73a13.92,13.92,0,0,0,1-1.46,2.21,2.21,0,0,0-.29-2.25A2.7,2.7,0,0,0,178.83,311.5Z" style="fill:#263238"></path><path d="M63.32,274.78a26.89,26.89,0,0,0-4.64,3.12A15.67,15.67,0,0,0,54.31,286c-.79,3.85-.16,18.17-.16,22.43s1.08,20.26,1.62,22.92-.35,6.62-1.58,9.2c-2.21,4.62,1.24,7,1.24,7l45.66-.34-.18-1.7c-.31-3,.79-6-.34-8.75s-2.87-9-2-14.29c0,0,5.7-7.08,1-18.5-2.67-6.53-6.9-17.92-15.39-24.46l-10.15-3.31C74.44,276.29,66,274.48,63.32,274.78Z" style="fill:#00FFFF"></path><path d="M119.79,333.26l-39-8.14-1-33.87s-1.37-13.8-8.28-15.08L54.84,296.89c.93,10.45.08,30.22,4.88,37.84S69.19,348.46,81,347.92s37.88-.79,37.88-.79Z" style="fill:#00FFFF"></path><path d="M80.85,325.25c.09.07-.84,1.29-1.63,3s-1.13,3.19-1.25,3.17a9.86,9.86,0,0,1,2.88-6.17Z" style="fill:#263238"></path><g style="opacity:0.30000000000000004"><path d="M79.5,289.8c3.89,12,3,30.43,10.48,37.24l-9.21-1.92a47,47,0,0,0,.08-6.51c-.75-9.46-.84-19.09-1.35-28.81"></path></g><path d="M78.63,285.53a21.33,21.33,0,0,1,.69,2.72c.17.9.35,2,.47,3.35s.15,2.87.21,4.59c.22,6.91.54,16.83.93,28.92L80.8,325l39,8.11.16,0v.17c-.29,4.43-.59,9.1-.9,13.86v.18h-.18l-4.75.05c-6.78.08-13.4.19-19.79.32-3.19.07-6.33.15-9.4.26a51.36,51.36,0,0,1-9-.1,19.5,19.5,0,0,1-4.25-1.09,17.81,17.81,0,0,1-3.74-2,25.48,25.48,0,0,1-5.63-5.84q-1.14-1.61-2.16-3.21l-.5-.79c-.16-.27-.3-.55-.45-.83l-.44-.82-.33-.86a33.29,33.29,0,0,1-1.75-6.77,110.14,110.14,0,0,1-1.14-12c-.17-3.52-.25-6.56-.34-9s-.17-4.41-.23-5.71c0-.65-.07-1.14-.1-1.49s0-.51,0-.51,0,.18,0,.51.08.84.14,1.48c.09,1.31.2,3.23.31,5.72s.21,5.52.4,9a110.25,110.25,0,0,0,1.2,11.91,32.67,32.67,0,0,0,1.75,6.7l.33.85.43.8c.15.27.29.55.44.81l.51.79c.68,1.07,1.4,2.12,2.16,3.18a25,25,0,0,0,5.56,5.76,17.81,17.81,0,0,0,3.67,2A19.32,19.32,0,0,0,76,347.5a50.54,50.54,0,0,0,9,.08c3.08-.11,6.22-.19,9.41-.26,6.4-.15,13-.25,19.8-.34l4.74-.05-.19.19c.31-4.76.61-9.43.9-13.87l.16.2-39-8.18-.12,0v-.13c-.33-12.09-.6-22-.79-28.92,0-1.73,0-3.26-.17-4.59a30.38,30.38,0,0,0-.43-3.35c-.16-.9-.31-1.58-.43-2l-.12-.51C78.64,285.59,78.63,285.53,78.63,285.53Z" style="fill:#263238"></path><polygon points="141.25 416.39 135.46 459.07 150.62 461.55 161.39 423.69 141.25 416.39" style="fill:#ffbf9d"></polygon><path d="M95.31,350.82s55.38-3.64,66.88-1.81c6.95,1.11,12.94,12,9.16,18.5-1.8,3.09-4.62,12.71-4.62,12.71L137,373.43Z" style="fill:#263238"></path><polygon points="136.96 380.22 124.97 398.51 139.08 407.66 154.39 384.19 136.96 380.22" style="fill:#ffbf9d"></polygon><path d="M56.52,347.47s-5.59,25.56,3.6,35.94,22.76,10.38,36.73,8.39S144,389.11,144,389.11s-1.48,9.07-2.57,19.39-1.3,16.86-1.3,16.86l20.77,1.73s11.57-35.23,13.35-42.2,1.18-16.35-5-19.82c-5.21-2.95-46.35-14.36-66-16.05l-2.14-1.84Z" style="fill:#263238"></path><path d="M154.17,380.62c0,.08-.81.19-2,.63a12.94,12.94,0,0,0-2.08,1,14.61,14.61,0,0,0-2.26,1.64,14.16,14.16,0,0,0-1.87,2.08,12.78,12.78,0,0,0-1.17,2c-.57,1.18-.77,2-.84,2a2,2,0,0,1,.09-.57,8.46,8.46,0,0,1,.49-1.5,12.07,12.07,0,0,1,1.13-2.07,13.81,13.81,0,0,1,1.9-2.16,13.61,13.61,0,0,1,2.35-1.67A11.27,11.27,0,0,1,152,381a8.21,8.21,0,0,1,1.55-.34A2.14,2.14,0,0,1,154.17,380.62Z" style="fill:#455a64"></path><path d="M151.7,359.35a9.55,9.55,0,0,1,2.69-4,30.76,30.76,0,0,1-2.69,4Z" style="fill:#455a64"></path><path d="M175.13,375.09a1.3,1.3,0,0,1-.06-.2c0-.16-.08-.35-.14-.59-.12-.52-.31-1.29-.62-2.25a17.67,17.67,0,0,0-1.48-3.36,8.39,8.39,0,0,0-3.35-3.37,92.44,92.44,0,0,0-12-4.25c-4.59-1.38-9.66-2.83-15-4.24C131.81,354,122,352,114.84,350.77c-3.58-.61-6.48-1-8.49-1.3l-2.31-.32-.61-.09-.2,0h.21l.61.06,2.32.24c2,.23,4.93.6,8.51,1.17a282.06,282.06,0,0,1,27.72,5.95c5.36,1.42,10.42,2.89,15,4.28a88.4,88.4,0,0,1,12,4.35,8.65,8.65,0,0,1,3.41,3.51,16.6,16.6,0,0,1,1.43,3.43,22.53,22.53,0,0,1,.56,2.27c0,.24.07.44.1.6A.66.66,0,0,1,175.13,375.09Z" style="fill:#455a64"></path><path d="M151.79,460.45l.51-1.85a28.88,28.88,0,0,1-16.73-7.21l-5.13,11.1,34.24,15.22C166,474.44,151.79,460.45,151.79,460.45Z" style="fill:#455a64"></path><path d="M130.44,462.49l1.25-2.71,32.43,15.64s1.22,1.32.56,2.29Z" style="fill:#e0e0e0"></path><path d="M151.34,460.23c-.09.16-1-.14-2,0s-1.82.65-1.95.52.57-1,1.87-1.14S151.44,460.1,151.34,460.23Z" style="fill:#263238"></path><path d="M138,459a1,1,0,0,1-1.32.46,1,1,0,0,1-.46-1.29,1,1,0,0,1,1.32-.45A.94.94,0,0,1,138,459Z" style="fill:#e0e0e0"></path><path d="M151.13,460a2.25,2.25,0,0,1-.78-.14,4.14,4.14,0,0,1-1.92-1,3,3,0,0,1-.45-.59,1.73,1.73,0,0,1-.28-.79.84.84,0,0,1,.53-.85,1.34,1.34,0,0,1,1,.05,3.82,3.82,0,0,1,2.12,3.34l-.51-.07a4,4,0,0,1,.34-.77,4.22,4.22,0,0,1,3.71-2.1,1.44,1.44,0,0,1,.58.11.77.77,0,0,1,.39.51,1.35,1.35,0,0,1-.25,1,3.08,3.08,0,0,1-1.31,1.05,5.13,5.13,0,0,1-2.35.35,2.55,2.55,0,0,1-.86-.07,2.85,2.85,0,0,1,.85-.12,5.84,5.84,0,0,0,2.2-.48,2.79,2.79,0,0,0,1.11-.95,1,1,0,0,0,.16-.67c0-.19-.2-.26-.52-.25a3.76,3.76,0,0,0-3.26,1.88,3.88,3.88,0,0,0-.29.67.26.26,0,0,1-.33.16.24.24,0,0,1-.18-.23,3.44,3.44,0,0,0-1.79-2.94c-.47-.25-1,0-1,.37a2.36,2.36,0,0,0,.58,1.17,4.43,4.43,0,0,0,1.73,1.07A3.32,3.32,0,0,1,151.13,460Z" style="fill:#263238"></path><path d="M154,462.61a11.49,11.49,0,0,0-2.26.16,11.91,11.91,0,0,0-2.08.92,3.55,3.55,0,0,1,4.34-1.08Z" style="fill:#263238"></path><path d="M155.87,464.78c0,.12-.94.09-2,.41s-1.84.84-1.91.75a3,3,0,0,1,1.79-1.13A3,3,0,0,1,155.87,464.78Z" style="fill:#263238"></path><path d="M141.77,405.6l.81-1.74a28.83,28.83,0,0,1-15.28-9.92L120.38,404l31.18,20.78C153.39,421.78,141.77,405.6,141.77,405.6Z" style="fill:#455a64"></path><path d="M120.38,404l1.69-2.46,29.33,20.88s1,1.51.16,2.36Z" style="fill:#e0e0e0"></path><path d="M141.35,405.31c-.1.14-.91-.3-2-.32s-1.91.33-2,.18.72-.86,2-.8S141.48,405.2,141.35,405.31Z" style="fill:#263238"></path><path d="M128.42,401.89a1,1,0,0,1-1.38.23,1,1,0,0,1-.24-1.35,1,1,0,0,1,1.38-.22A1,1,0,0,1,128.42,401.89Z" style="fill:#e0e0e0"></path><path d="M141.19,405.05a2.18,2.18,0,0,1-.74-.27,4.11,4.11,0,0,1-1.72-1.33,3,3,0,0,1-.35-.66,1.81,1.81,0,0,1-.15-.83.85.85,0,0,1,.67-.74,1.3,1.3,0,0,1,1,.22,3.81,3.81,0,0,1,1.52,3.65l-.48-.16a4.67,4.67,0,0,1,.46-.7,4.22,4.22,0,0,1,4-1.44,1.3,1.3,0,0,1,.55.21.71.71,0,0,1,.3.56,1.37,1.37,0,0,1-.41.94,3,3,0,0,1-1.47.81,5.19,5.19,0,0,1-2.38-.05,3.28,3.28,0,0,1-.83-.21,2.48,2.48,0,0,1,.86,0,5.67,5.67,0,0,0,2.24-.1,2.76,2.76,0,0,0,1.26-.76.87.87,0,0,0,.27-.63c0-.19-.16-.28-.47-.33a3.74,3.74,0,0,0-3.52,1.3,3.62,3.62,0,0,0-.41.61.25.25,0,0,1-.35.11.26.26,0,0,1-.14-.26,3.42,3.42,0,0,0-1.27-3.2c-.42-.32-1-.2-1,.21a2.28,2.28,0,0,0,.37,1.24,4.34,4.34,0,0,0,1.52,1.35A2.86,2.86,0,0,1,141.19,405.05Z" style="fill:#263238"></path><path d="M143.54,408.09a12.51,12.51,0,0,0-2.26-.22,12.49,12.49,0,0,0-2.2.56,2.88,2.88,0,0,1,2.17-1A2.92,2.92,0,0,1,143.54,408.09Z" style="fill:#263238"></path><path d="M145.06,410.56c0,.11-.94-.07-2.05.07s-1.95.51-2,.41a3,3,0,0,1,2-.81A2.93,2.93,0,0,1,145.06,410.56Z" style="fill:#263238"></path><path d="M81.27,258.16a2.44,2.44,0,0,0-2.21-.81,2.24,2.24,0,0,0-1.49.88,1.4,1.4,0,0,0,0,1.61,1.61,1.61,0,0,0,1.78.37A5.18,5.18,0,0,0,81,259.12a1.49,1.49,0,0,0,.37-.42.45.45,0,0,0,0-.49" style="fill:#ff9a6c"></path><path d="M77.79,256c.21,0,.28,1.44,1.57,2.42s2.83.76,2.85,1-.33.29-1,.34a3.64,3.64,0,0,1-2.38-.72,3.19,3.19,0,0,1-1.22-2C77.54,256.36,77.69,256,77.79,256Z" style="fill:#263238"></path></g></svg>